# xmcd CD database file
#
# Track frame offsets:
#	150
#	25842
#	51725
#	73237
#	99312
#	124602
#	142975
#	162397
#	187270
#	205130
#
# Disc length: 4440 seconds
#
# Revision: 1
# Processed by: cddbd v1.5.2PL0 Copyright (c) Steve Scherf et al.
# Submitted via: CDex 1.70beta2
#
DISCID=9611560a
DTITLE=松永貴志, piano - 安ヵ川大樹, bass - 広瀬潤次, drums - TAKASHI  introducing 松永貴志 - Takashi Matsunaga
DYEAR=2003
DGENRE=Jazz
TTITLE0=HOMEWORK／宿題 (Takashi Matsunaga)
TTITLE1=HIGH IN THE SKY／空高く (Takashi Matsunaga)
TTITLE2=BEAUTIFUL LOVE／ビューティフル・ラヴ (H. Gillespie-V. Young-W. King-E. V. Alstyne)
TTITLE3=MELON／メロン (Takashi Matsunaga)
TTITLE4=CARAVAN／キャラヴァン (I. Mills-D. Ellington-J. Tizol)
TTITLE5=NIGHT RIVER／ナイト・リヴァー (Takashi Matsunaga)
TTITLE6=YESTERDAYS／イエスタデイズ (O. Harbach-J. Kern)
TTITLE7=HIGHWAY BLUES／ハイウェイ・ブルース (Takashi Matsunaga)
TTITLE8=A CHILD IS BORN／チャイルド・イズ・ボーン (Thad Jones)
TTITLE9=(DATA TRACK)
EXTD=YEAR: 2003
EXTT0=
EXTT1=
EXTT2=
EXTT3=
EXTT4=
EXTT5=
EXTT6=
EXTT7=
EXTT8=
EXTT9=
PLAYORDER=
